HIERARCHY
ROOT Hips
{
	OFFSET 0.000000 0.000000 0.000000
	CHANNELS 6 Xposition Yposition Zposition Xrotation Yrotation Zrotation
	JOINT LeftUpLeg_virtual
	{
		OFFSET 0.000000 0.000000 0.000000
		CHANNELS 3 Xrotation Yrotation Zrotation
		JOINT LeftUpLeg
		{
			OFFSET 13.026900 -6.336304 -1.092800
			CHANNELS 3 Xrotation Yrotation Zrotation
			JOINT LeftLeg
			{
				OFFSET 0.524474 -46.096886 9.782700
				CHANNELS 3 Xrotation Yrotation Zrotation
				JOINT LeftFoot
				{
					OFFSET -0.524474 -53.427422 -12.948200
					CHANNELS 3 Xrotation Yrotation Zrotation
					JOINT LeftToeBase
					{
						OFFSET 0.192200 -14.009700 16.364100
						CHANNELS 3 Xrotation Yrotation Zrotation
						JOINT LeftToe_End
						{
							OFFSET -1.784700 -0.561700 9.474800
							CHANNELS 3 Xrotation Yrotation Zrotation
							End Site
							{
								OFFSET 0 0 0
							}
						}
					}
				}
			}
		}
	}
	JOINT RightUpLeg_virtual
	{
		OFFSET 0.000000 0.000000 0.000000
		CHANNELS 3 Xrotation Yrotation Zrotation
		JOINT RightUpLeg
		{
			OFFSET -12.883000 -6.336304 -1.092800
			CHANNELS 3 Xrotation Yrotation Zrotation
			JOINT RightLeg
			{
				OFFSET -0.524587 -46.096825 9.782800
				CHANNELS 3 Xrotation Yrotation Zrotation
				JOINT RightFoot
				{
					OFFSET 0.524587 -53.427383 -12.948300
					CHANNELS 3 Xrotation Yrotation Zrotation
					JOINT RightToeBase
					{
						OFFSET -0.192200 -14.009700 16.364100
						CHANNELS 3 Xrotation Yrotation Zrotation
						JOINT RightToe_End
						{
							OFFSET 1.784700 -0.561700 9.474800
							CHANNELS 3 Xrotation Yrotation Zrotation
							End Site
							{
								OFFSET 0 0 0
							}
						}
					}
				}
			}
		}
	}
	JOINT Spine_virtual
	{
		OFFSET 0.000000 0.000000 0.000000
		CHANNELS 3 Xrotation Yrotation Zrotation
		JOINT Spine
		{
			OFFSET 0.072000 7.257294 -0.789700
			CHANNELS 3 Xrotation Yrotation Zrotation
			JOINT Spine1
			{
				OFFSET 0.000000 12.508769 -0.658067
				CHANNELS 3 Xrotation Yrotation Zrotation
				JOINT Spine1_split
				{
					OFFSET 0.000000 12.508769 -0.658067
					CHANNELS 3 Xrotation Yrotation Zrotation
					JOINT Spine2
					{
						OFFSET 0.000000 12.508769 -0.658067
						CHANNELS 3 Xrotation Yrotation Zrotation
						JOINT Neck_virtual
						{
							OFFSET 0.000000 0.000000 0.000000
							CHANNELS 3 Xrotation Yrotation Zrotation
							JOINT Neck
							{
								OFFSET 0.000000 14.033295 7.520400
								CHANNELS 3 Xrotation Yrotation Zrotation
								JOINT Head
								{
									OFFSET 0.000000 8.198502 5.703100
									CHANNELS 3 Xrotation Yrotation Zrotation
									JOINT HeadTop_End
									{
										OFFSET 0.000000 17.760803 13.332701
										CHANNELS 3 Xrotation Yrotation Zrotation
										End Site
										{
											OFFSET 0 0 0
										}
									}
								}
							}
						}
						JOINT LeftShoulder_virtual
						{
							OFFSET 0.000000 0.000000 0.000000
							CHANNELS 3 Xrotation Yrotation Zrotation
							JOINT LeftShoulder
							{
								OFFSET 6.292450 5.785301 -0.669000
								CHANNELS 3 Xrotation Yrotation Zrotation
								JOINT LeftShoulder_split
								{
									OFFSET 6.292450 5.785301 -0.669000
									CHANNELS 3 Xrotation Yrotation Zrotation
									JOINT LeftArm
									{
										OFFSET 13.907140 -6.093903 1.965100
										CHANNELS 3 Xrotation Yrotation Zrotation
										JOINT LeftForeArm
										{
											OFFSET 34.140198 0.000000 0.000000
											CHANNELS 3 Xrotation Yrotation Zrotation
											JOINT LeftHand
											{
												OFFSET 40.960209 0.000000 0.000000
												CHANNELS 3 Xrotation Yrotation Zrotation
												End Site
												{
													OFFSET 0 0 0
												}
											}
										}
									}
								}
							}
						}
						JOINT RightShoulder_virtual
						{
							OFFSET 0.000000 0.000000 0.000000
							CHANNELS 3 Xrotation Yrotation Zrotation
							JOINT RightShoulder
							{
								OFFSET -6.292450 5.785301 -0.669000
								CHANNELS 3 Xrotation Yrotation Zrotation
								JOINT RightShoulder_split
								{
									OFFSET -6.292450 5.785301 -0.669000
									CHANNELS 3 Xrotation Yrotation Zrotation
									JOINT RightArm
									{
										OFFSET -13.907140 -6.093903 1.965100
										CHANNELS 3 Xrotation Yrotation Zrotation
										JOINT RightForeArm
										{
											OFFSET -34.140198 0.000000 0.000000
											CHANNELS 3 Xrotation Yrotation Zrotation
											JOINT RightHand
											{
												OFFSET -40.960209 0.000000 0.000000
												CHANNELS 3 Xrotation Yrotation Zrotation
												End Site
												{
													OFFSET 0 0 0
												}
											}
										}
									}
								}
							}
						}
					}
				}
			}
		}
	}
}
MOTION
Frames: 10
Frame Time: 0.03333333
-1.860416 109.145676 18.490864 0.000000 0.000000 0.000000 174.525950 -61.770674 176.074272 -1.062291 15.895023 15.780744 21.266986 15.784422 1.809456 -10.203032 5.662439 -25.813718 -6.789935 1.683268 -0.389322 0.000000 0.000000 0.000000 173.705740 -61.042657 174.796261 -28.285555 -19.481250 -17.961524 23.913430 -11.390362 0.669399 4.798612 -0.346528 9.642522 -1.984449 -3.915627 3.492413 0.000000 0.000000 0.000000 174.070431 -63.856265 174.329760 9.278926 -0.675790 -0.267420 -0.256939 -1.319892 2.181209 0.816910 -0.532411 -0.066656 0.000000 0.000000 0.000000 -2.328009 -1.231930 2.525770 -3.893221 21.836494 4.428159 2.510022 23.341342 -7.797001 0.000000 0.000000 0.000000 -2.142430 -0.804094 2.199908 0.972582 1.751354 -8.212394 1.614528 -2.802077 -2.034313 -0.786504 -7.826648 -58.429523 5.150883 -16.805972 -6.000771 0.000000 0.000000 0.000000 -1.735612 -1.155401 1.769064 1.740319 -2.102387 18.986259 -2.778655 -1.849723 -0.580251 16.743799 27.541901 45.049513 16.469270 26.834343 -5.987447 0.000000 0.000000 0.000000 
-1.949526 108.374573 16.526905 0.000000 0.000000 0.000000 175.176799 -58.254397 177.034555 2.020321 17.743252 16.308453 20.654758 17.975349 1.619722 -9.750907 6.849231 -26.929899 -7.076505 1.971084 -0.392236 0.000000 0.000000 0.000000 174.533955 -57.690708 175.878409 -30.406967 -20.254071 -17.476883 25.440879 -10.638488 0.733176 5.369516 1.101062 8.949380 -2.749256 -3.958488 3.436374 0.000000 0.000000 0.000000 175.245155 -60.041912 175.855187 9.513225 -1.176615 -0.403024 -0.176094 -1.689907 2.721194 0.919557 -0.286971 -0.146499 0.000000 0.000000 0.000000 -2.368249 -1.603024 3.001631 -4.045004 19.220547 3.312531 1.882279 19.373398 -6.054764 0.000000 0.000000 0.000000 -2.067021 -1.162139 2.711823 0.985528 2.211124 -9.114157 1.324314 -2.780745 -1.826170 0.478732 -8.317356 -58.751662 4.445652 -16.845980 -5.960225 0.000000 0.000000 0.000000 -1.621449 -1.478324 2.285260 1.739123 -2.412132 18.373364 -2.869244 -1.720162 -0.543270 16.027993 28.549675 45.286155 16.194423 26.611578 -6.224184 0.000000 0.000000 0.000000 
-2.045125 107.545143 14.361130 0.000000 0.000000 0.000000 175.879529 -54.710942 177.970524 4.138684 19.087561 17.170582 22.011955 19.520703 1.223948 -9.243895 7.505333 -27.298349 -6.796750 2.433633 -0.997629 0.000000 0.000000 0.000000 175.422644 -54.325279 176.911776 -31.651496 -21.139978 -16.406569 26.630684 -9.638053 0.626087 5.156710 2.295824 7.632141 -3.309938 -3.967097 3.323600 0.000000 0.000000 0.000000 176.381945 -56.268481 177.196335 9.942560 -1.737483 -0.512533 -0.144271 -2.053176 3.140552 0.965627 -0.014544 -0.289645 0.000000 0.000000 0.000000 -2.433696 -1.979614 3.354410 -4.078364 16.253863 2.494892 1.403542 15.221005 -4.474458 0.000000 0.000000 0.000000 -2.032756 -1.524992 3.105872 1.002074 2.556461 -9.781263 1.178565 -2.839017 -1.442248 1.993121 -8.739382 -59.260121 3.826429 -17.139684 -6.029787 0.000000 0.000000 0.000000 -1.575342 -1.806583 2.707828 1.757913 -2.602669 17.937769 -3.138805 -1.513049 -0.474213 15.408446 29.548317 45.503424 15.792244 26.419050 -6.183611 0.000000 0.000000 0.000000 
-2.143435 106.845390 11.826958 0.000000 0.000000 0.000000 176.604486 -51.233044 178.812850 4.675987 19.252647 18.447718 25.471859 19.806837 0.787867 -7.816211 7.057404 -27.550383 -6.739659 3.041702 -2.218898 0.000000 0.000000 0.000000 176.395796 -50.994322 177.878138 -31.852440 -21.924052 -14.675930 27.337151 -8.571877 0.319870 4.140017 3.004309 5.597227 -3.330538 -3.952831 3.191360 0.000000 0.000000 0.000000 177.401664 -52.545940 178.235603 10.514590 -2.244324 -0.547635 -0.209702 -2.337179 3.314252 0.983675 0.387954 -0.261770 0.000000 0.000000 0.000000 -2.510601 -2.279558 3.461235 -3.926171 13.069179 2.082106 1.077680 11.076823 -3.154966 0.000000 0.000000 0.000000 -2.072274 -1.817376 3.263607 1.002493 2.792721 -10.084505 1.080473 -2.828765 -1.023470 3.509990 -8.853047 -59.871833 3.288078 -17.627986 -6.231795 0.000000 0.000000 0.000000 -1.619416 -2.076847 2.906163 1.767735 -2.667201 17.713143 -3.386332 -1.326284 -0.384053 14.880785 30.346039 45.681791 15.367456 26.315491 -5.958441 0.000000 0.000000 0.000000 
-2.226599 106.487350 8.973629 0.000000 0.000000 0.000000 177.465117 -47.801892 179.589224 3.781773 18.031916 19.725381 30.385087 19.138357 0.511415 -5.139771 5.507874 -27.219610 -7.596499 3.744907 -3.925071 0.000000 0.000000 0.000000 177.358470 -47.535306 178.621400 -31.181706 -22.255642 -12.289214 27.803711 -7.353480 -0.161354 2.645130 3.271109 3.263924 -3.055193 -3.933163 2.965599 0.000000 0.000000 0.000000 178.295040 -48.875099 178.905276 11.148919 -2.593776 -0.463918 -0.391578 -2.510197 3.194369 0.903628 0.688982 -0.196700 0.000000 0.000000 0.000000 -2.596788 -2.443243 3.292816 -3.553949 9.841165 2.099326 0.863074 7.151060 -2.156566 0.000000 0.000000 0.000000 -2.166893 -1.982626 3.146543 0.991664 2.922258 -10.012195 0.947077 -2.637602 -0.674004 4.774687 -8.466447 -60.573348 2.861881 -18.135648 -6.578682 0.000000 0.000000 0.000000 -1.748696 -2.231933 2.828290 1.728653 -2.663072 17.652709 -3.480728 -1.162432 -0.351251 14.426089 30.887024 45.764142 15.009962 26.365416 -5.687157 0.000000 0.000000 0.000000 
-2.394007 106.648575 5.837959 0.000000 0.000000 0.000000 178.406003 -44.324373 -179.839810 2.081396 16.085113 20.436396 35.508514 18.344582 0.450011 -2.233049 3.586470 -25.113023 -9.362060 4.493229 -5.895436 0.000000 0.000000 0.000000 178.297307 -43.996650 179.087806 -29.939953 -21.903740 -9.411571 28.272900 -5.916144 -0.747442 1.179893 3.271153 1.217653 -2.935020 -3.930748 2.583899 0.000000 0.000000 0.000000 179.091467 -45.163157 179.313612 11.763407 -2.696604 -0.261842 -0.644305 -2.533731 2.818319 0.787860 0.809942 -0.127845 0.000000 0.000000 0.000000 -2.689201 -2.435777 2.882878 -2.935898 6.681297 2.470918 0.746233 3.553934 -1.524712 0.000000 0.000000 0.000000 -2.290504 -1.982004 2.782572 0.970476 2.933598 -9.667502 0.833205 -2.281031 -0.440719 5.789301 -7.492319 -61.318836 2.606576 -18.345029 -7.033233 0.000000 0.000000 0.000000 -1.921201 -2.229132 2.501706 1.643676 -2.684040 17.696697 -3.357489 -1.038430 -0.442912 14.050121 31.363621 45.608038 14.765168 26.444828 -5.437599 0.000000 0.000000 0.000000 
-2.640985 107.323288 2.367535 0.000000 0.000000 0.000000 179.295621 -40.599669 -179.601996 0.033243 14.025256 20.109786 40.082388 18.002564 0.499665 -0.278285 2.059250 -20.728089 -11.342687 5.185825 -7.832625 0.000000 0.000000 0.000000 179.132776 -40.287854 179.243261 -28.408983 -20.785268 -6.272440 28.645643 -4.141513 -1.364158 0.011943 3.179420 0.066233 -3.411532 -3.948952 2.029398 0.000000 0.000000 0.000000 179.816683 -41.381763 179.552983 12.303601 -2.518240 0.039792 -0.913136 -2.384773 2.286948 0.644516 0.829759 -0.020316 0.000000 0.000000 0.000000 -2.777137 -2.243716 2.318636 -2.100785 3.702697 3.030750 0.708331 0.360525 -1.216895 0.000000 0.000000 0.000000 -2.396287 -1.818895 2.272206 0.948118 2.875451 -9.212927 0.716653 -1.814156 -0.226458 6.707021 -6.003955 -62.115093 2.562617 -18.025554 -7.543333 0.000000 0.000000 0.000000 -2.095166 -2.053714 2.024794 1.539972 -2.806841 17.721665 -3.148421 -1.092283 -0.587885 13.844397 31.987285 45.079313 14.653273 26.386708 -5.244802 0.000000 0.000000 0.000000 
-3.039163 108.372681 -1.386169 0.000000 0.000000 0.000000 -179.938164 -36.650672 -179.657130 -2.450636 12.361015 18.883269 44.105178 17.863999 0.398518 0.303204 0.967807 -15.044497 -12.759861 5.686010 -9.348187 0.000000 0.000000 0.000000 179.766467 -36.437782 179.074446 -26.703444 -18.920206 -3.130598 28.799124 -2.029293 -1.941195 -1.003279 3.136391 -0.213636 -4.270626 -3.943963 1.397613 0.000000 0.000000 0.000000 -179.560236 -37.536807 179.684737 12.692013 -2.111439 0.375312 -1.134830 -2.076798 1.716235 0.501458 0.684580 -0.012249 0.000000 0.000000 0.000000 -2.851630 -1.901503 1.720364 -1.152215 0.989464 3.614901 0.748862 -2.397429 -1.190794 0.000000 0.000000 0.000000 -2.454645 -1.510019 1.727464 0.928618 2.775244 -8.795066 0.727116 -1.414223 -0.025615 7.635684 -4.253181 -62.974754 2.798869 -17.232367 -8.023609 0.000000 0.000000 0.000000 -2.232165 -1.724201 1.509178 1.447397 -3.138494 17.699942 -2.959694 -1.206222 -0.687257 13.883437 32.757270 44.217982 14.618514 26.076602 -5.089243 0.000000 0.000000 0.000000 
-3.511236 109.624222 -5.435471 0.000000 0.000000 0.000000 -179.462715 -32.496578 -179.921116 -5.714307 11.348875 17.068411 47.818540 17.175950 0.142366 0.035941 -0.219671 -9.939652 -13.558240 5.864026 -9.891801 0.000000 0.000000 0.000000 -179.841012 -32.490745 178.790269 -24.819111 -16.495863 -0.195645 28.566149 0.091590 -2.359514 -2.114069 3.055419 -0.376660 -4.464668 -3.876448 0.924268 0.000000 0.000000 0.000000 -179.123869 -33.665883 179.684710 12.904673 -1.566404 0.638668 -1.280481 -1.642107 1.213582 0.527591 0.577696 -0.044766 0.000000 0.000000 0.000000 -2.880890 -1.455953 1.176602 -0.201576 -1.404066 4.053180 0.852890 -4.687514 -1.335884 0.000000 0.000000 0.000000 -2.475069 -1.101567 1.235647 0.904157 2.710378 -8.506399 0.813296 -1.102745 0.308486 8.754782 -2.444141 -63.874058 3.313736 -16.236371 -8.376982 0.000000 0.000000 0.000000 -2.299247 -1.285700 1.048733 1.405290 -3.713243 17.627289 -2.941122 -1.350374 -0.724478 14.247418 33.547915 43.233571 14.620478 25.522023 -4.927038 0.000000 0.000000 0.000000 
-4.043816 110.809982 -9.682781 0.000000 0.000000 0.000000 -179.305675 -28.426230 179.766604 -9.766785 10.679602 14.779238 50.952637 15.591174 -0.023373 -0.218812 -1.694162 -6.409499 -14.418220 5.673214 -9.034605 0.000000 0.000000 0.000000 -179.731811 -28.406315 178.446847 -22.912322 -13.681975 2.303567 27.824447 2.057570 -2.565299 -3.414562 2.793456 -0.865304 -3.528778 -3.741884 0.703414 0.000000 0.000000 0.000000 -178.869103 -29.865562 179.653100 12.891984 -0.997662 0.740298 -1.335799 -1.137726 0.845730 0.625523 0.620889 -0.017721 0.000000 0.000000 0.000000 -2.838218 -0.965746 0.756222 0.626307 -3.428883 4.271445 0.990064 -6.461488 -1.552558 0.000000 0.000000 0.000000 -2.454252 -0.645059 0.863821 0.877898 2.749663 -8.345774 0.987770 -0.886216 0.644985 9.924779 -0.807973 -64.817730 4.058306 -15.361514 -8.557355 0.000000 0.000000 0.000000 -2.297631 -0.796515 0.702336 1.417305 -4.512137 17.533283 -3.016838 -1.407417 -0.697306 14.837143 34.032968 42.453533 14.632220 24.952703 -4.743401 0.000000 0.000000 0.000000 
